# xmcd
#
# Track frame offsets: 
#        150
#        19094
#        37032
#        54760
#        75669
#        93135
#        116767
#        137736
#        161493
#        179631
#        201835
#
# Disc length: 2834 seconds
#
# Revision: 1
# Processed by: cddbd v1.5.2PL0 Copyright (c) Steve Scherf et al.
# Submitted via: ExactAudioCopyFreeDBPlugin 1.0
#
DISCID=8b0b100b
DTITLE=Пикник - Железные мантры
DYEAR=2008
DGENRE=Rock
TTITLE0=Недобитый романтик
TTITLE1=Гиперболоид
TTITLE2=Колдыри да колдобины
TTITLE3=Железные мантры
TTITLE4=Слово это ветер
TTITLE5=Лунатики
TTITLE6=Дом мой на двух ногах
TTITLE7=Существо
TTITLE8=Здесь живут дома-колодцы
TTITLE9=Цветок ненастья
TTITLE10=Приоткроется дверь...
EXTD=
EXTT0=
EXTT1=
EXTT2=
EXTT3=
EXTT4=
EXTT5=
EXTT6=
EXTT7=
EXTT8=
EXTT9=
EXTT10=
PLAYORDER=
